<svg xmlns="http://www.w3.org/2000/svg" viewBox="0 0 34.48 6.64"><defs><style>.cls-1{fill:#fff;}.cls-2{fill:#5527c4;}</style></defs><title>logo</title><g id="Layer_2" data-name="Layer 2"><g id="Layer_1-2" data-name="Layer 1"><path class="cls-1" d="M.89.89V3.8a.58.58,0,0,1-.13.43.48.48,0,0,1-.34.13.62.62,0,0,1-.21,0A.81.81,0,0,1,0,4.24v.83a1,1,0,0,0,.32.15,1.51,1.51,0,0,0,.53.08,1.84,1.84,0,0,0,.56-.08A1.21,1.21,0,0,0,1.81,5,1.25,1.25,0,0,0,2,4.65a1.62,1.62,0,0,0,.12-.43,3.73,3.73,0,0,0,0-.5V.54H.7Z"/><path class="cls-1" d="M5.86,3.29a3,3,0,0,0-.07-.73,1,1,0,0,0-.23-.47.85.85,0,0,0-.42-.27,2.37,2.37,0,0,0-.66-.08,3,3,0,0,0-.89.14,3,3,0,0,0-.71.31l.26.54a1.86,1.86,0,0,1,.42-.14,3.15,3.15,0,0,1,.52,0,.63.63,0,0,1,.41.1A.39.39,0,0,1,4.62,3v.07H4.34L4,3.11l-.35.09a2.07,2.07,0,0,0-.34.15A1.3,1.3,0,0,0,3,3.57a.88.88,0,0,0-.2.29,1,1,0,0,0-.07.38A1,1,0,0,0,3.83,5.31a1.12,1.12,0,0,0,.31,0,.89.89,0,0,0,.26-.11L4.59,5l.12-.12,0,0,.13.36H6l-.11-.32ZM4.62,4.52l-.09.06a.17.17,0,0,1-.1,0c-.22,0-.34-.17-.34-.5a.54.54,0,0,1,.15-.42.52.52,0,0,1,.38-.13Z"/><path class="cls-2" d="M11.5,1.87a1.16,1.16,0,0,0-.58-.13,1,1,0,0,0-.63.21,1.67,1.67,0,0,0-.41.44.83.83,0,0,0-.3-.49A1.09,1.09,0,0,0,9,1.74a.92.92,0,0,0-.31.07,1.36,1.36,0,0,0-.27.13c-.07.06-.14.11-.21.18L8,2.27,8,2.34V1.82H7.29l-.86.24v.43l.24.15V5.23H8V2.89l0,0,0,0,0,0,0,0,0,0,0,0,0,0h.13c.22,0,.33.12.32.37V5.23H10V3.31c0-.15,0-.29,0-.41a.54.54,0,0,1,.31-.19.31.31,0,0,1,.26.1.36.36,0,0,1,.08.27V5.23h1.3v-2a3.29,3.29,0,0,0-.09-.88A.81.81,0,0,0,11.5,1.87Z"/><path class="cls-2" d="M17.55,1.87A1.2,1.2,0,0,0,17,1.74a1,1,0,0,0-.62.21,1.56,1.56,0,0,0-.42.44.83.83,0,0,0-.3-.49A1.05,1.05,0,0,0,15,1.74a.92.92,0,0,0-.32.07,1.26,1.26,0,0,0-.26.13,1.92,1.92,0,0,0-.22.18l-.14.15L14,2.34V1.82h-.68l-.86.24v.43l.24.15V5.23H14V2.89l0,0,0,0,0,0,0,0,0,0,0,0,0,0h.12c.23,0,.33.12.32.37V5.23H16V3.31c0-.15,0-.29,0-.41s.24-.19.32-.19a.29.29,0,0,1,.25.1.37.37,0,0,1,.09.27V5.23H18v-2a2.87,2.87,0,0,0-.1-.88A.75.75,0,0,0,17.55,1.87Z"/><path class="cls-2" d="M23.59,1.87A1.2,1.2,0,0,0,23,1.74a1,1,0,0,0-.62.21,1.56,1.56,0,0,0-.42.44.83.83,0,0,0-.3-.49,1,1,0,0,0-.61-.16.87.87,0,0,0-.31.07,1.13,1.13,0,0,0-.27.13,1.81,1.81,0,0,0-.21.18l-.15.15-.05.07V1.82h-.68l-.86.24v.43l.24.15V5.23h1.29V2.89l0,0,0,0,0,0,0,0,0,0,0,0,0,0h.13c.22,0,.33.12.32.37V5.23h1.32V3.31c0-.15,0-.29,0-.41s.23-.19.31-.19a.31.31,0,0,1,.26.1.41.41,0,0,1,.08.27V5.23H24v-2a3.29,3.29,0,0,0-.09-.88A.81.81,0,0,0,23.59,1.87Z"/><polygon class="cls-1" points="25.38 0 24.72 0.66 24.72 0.8 25.38 1.46 25.53 1.46 26.21 0.8 26.21 0.66 25.53 0 25.38 0"/><polygon class="cls-1" points="24.56 2.06 24.56 2.49 24.8 2.64 24.8 5.23 26.09 5.23 26.09 1.82 25.42 1.82 24.56 2.06"/><path class="cls-1" d="M29.24,1.74a1,1,0,0,0-.32.07,1.46,1.46,0,0,0-.28.14l-.21.18-.14.15-.05.06V1.82h-.68l-.86.24v.43l.24.15V5.23h1.3V2.89l0,0,0,0,0,0,0,0,0,0,0,0,0,0h.13c.22,0,.32.12.32.37V5.23h1.32V3.05A1.73,1.73,0,0,0,30,2,.91.91,0,0,0,29.24,1.74Z"/><path class="cls-1" d="M33.73,1.82h-.61L33.05,2a1.69,1.69,0,0,0-.86-.22,1.28,1.28,0,0,0-.59.14,1.18,1.18,0,0,0-.42.38,1.67,1.67,0,0,0-.24.56,2.53,2.53,0,0,0-.09.7,2.16,2.16,0,0,0,.31,1.25,1.09,1.09,0,0,0,1,.45A1.1,1.1,0,0,0,33,4.92v.34c0,.06,0,.11,0,.16a.58.58,0,0,1,0,.16.86.86,0,0,1-.1.16.67.67,0,0,1-.19.1.73.73,0,0,1-.27,0,1.55,1.55,0,0,1-.39-.06,1,1,0,0,1-.32-.14l-.25.55a1.39,1.39,0,0,0,.51.27,2.17,2.17,0,0,0,.7.14c1.11,0,1.66-.52,1.66-1.56V2.4l.24-.16V1.86ZM33,4.48a.63.63,0,0,1-.25.07.42.42,0,0,1-.4-.32,1.4,1.4,0,0,1-.07-.44V3.17c0-.54.18-.82.54-.82l.18,0Z"/></g></g></svg>